<?xml version="1.0" encoding="utf-8"?>
<!-- Generator: Adobe Illustrator 17.0.0, SVG Export Plug-In . SVG Version: 6.00 Build 0)  -->
<!DOCTYPE svg PUBLIC "-//W3C//DTD SVG 1.1//EN" "http://www.w3.org/Graphics/SVG/1.1/DTD/svg11.dtd">
<svg version="1.1" id="Слой_1" xmlns="http://www.w3.org/2000/svg" xmlns:xlink="http://www.w3.org/1999/xlink" x="0px" y="0px"
	 width="28.17px" height="28.169px" viewBox="0 0 28.17 28.169" enable-background="new 0 0 28.17 28.169" xml:space="preserve">
<g>
	<path fill="#FFFFFF" d="M20.678,12.392c-0.3,0-0.578,0.164-0.84,0.486v-1.966h-0.813v6.017h0.813v-0.433
		c0.272,0.335,0.55,0.494,0.84,0.494c0.322,0,0.539-0.168,0.648-0.503c0.055-0.19,0.082-0.489,0.082-0.903V13.8
		c0-0.423-0.027-0.72-0.082-0.901C21.217,12.563,21,12.392,20.678,12.392z M20.597,15.649c0,0.405-0.12,0.605-0.354,0.605
		c-0.134,0-0.271-0.065-0.405-0.199v-2.733c0.135-0.135,0.272-0.198,0.405-0.198c0.233,0,0.354,0.207,0.354,0.612V15.649z"/>
	<path fill="#FFFFFF" d="M7.061,13.084c-0.265,0-0.392,0.209-0.392,0.627v1.906c0,0.42,0.127,0.631,0.392,0.631
		c0.264,0,0.393-0.211,0.393-0.631v-1.906C7.453,13.293,7.324,13.084,7.061,13.084z"/>
	<path fill="#FFFFFF" d="M17.509,15.873c-0.18,0.255-0.351,0.381-0.514,0.381c-0.108,0-0.171-0.065-0.19-0.189
		c-0.009-0.026-0.009-0.126-0.009-0.317v-3.301h-0.811v3.545c0,0.316,0.027,0.531,0.07,0.667c0.08,0.228,0.262,0.333,0.523,0.333
		c0.299,0,0.605-0.18,0.929-0.551v0.489h0.813v-4.483h-0.813V15.873z"/>
	<polygon fill="#FFFFFF" points="13.035,11.762 13.991,11.762 13.991,16.931 14.895,16.931 14.895,11.762 15.867,11.762 
		15.867,10.913 13.035,10.913 	"/>
	<path fill="#FFFFFF" d="M23.266,12.392c-0.414,0-0.738,0.152-0.975,0.46c-0.172,0.227-0.252,0.579-0.252,1.056v1.57
		c0,0.477,0.09,0.83,0.263,1.055c0.233,0.308,0.559,0.459,0.983,0.459c0.425,0,0.757-0.159,0.982-0.485
		c0.1-0.144,0.163-0.308,0.19-0.485c0.008-0.082,0.018-0.263,0.018-0.525v-0.118h-0.829c0,0.326-0.011,0.507-0.019,0.55
		c-0.046,0.219-0.162,0.326-0.361,0.326c-0.281,0-0.414-0.207-0.414-0.622v-0.794h1.623v-0.93c0-0.477-0.082-0.828-0.252-1.056
		C23.994,12.545,23.672,12.392,23.266,12.392z M23.662,14.162h-0.811v-0.416c0-0.415,0.133-0.622,0.404-0.622
		c0.271,0,0.406,0.207,0.406,0.622V14.162z"/>
	<path fill="#FFFFFF" d="M14.086,0C6.306,0,0,6.306,0,14.084c0,7.779,6.306,14.085,14.086,14.085
		c7.777,0,14.084-6.306,14.084-14.085C28.17,6.306,21.863,0,14.086,0z M4.744,14.469v2.461H3.836v-2.461
		c-0.083-0.438-0.267-1.076-0.559-1.925c-0.191-0.563-0.393-1.13-0.584-1.694h0.959l0.647,2.389L4.92,10.85h0.92L4.744,14.469z
		 M8.274,15.463c0,0.482-0.082,0.84-0.254,1.065c-0.228,0.31-0.548,0.464-0.959,0.464c-0.408,0-0.728-0.154-0.955-0.464
		c-0.177-0.226-0.258-0.583-0.258-1.065v-1.586c0-0.484,0.081-0.839,0.258-1.067c0.227-0.309,0.547-0.465,0.955-0.465
		c0.411,0,0.731,0.155,0.959,0.465c0.172,0.229,0.254,0.583,0.254,1.067V15.463z M11.309,16.93h-0.82v-0.493
		c-0.326,0.375-0.639,0.556-0.938,0.556c-0.263,0-0.445-0.106-0.528-0.336c-0.045-0.138-0.073-0.354-0.073-0.674V12.4h0.819v3.336
		c0,0.191,0,0.291,0.01,0.318c0.018,0.127,0.082,0.193,0.193,0.193c0.164,0,0.336-0.129,0.518-0.385V12.4h0.82V16.93z
		 M23.787,18.521c-1.666,0.186-3.354,0.188-5.033,0.186c-1.68,0.002-3.367,0-5.035-0.186c-0.703-0.078-1.287-0.605-1.452-1.32
		c-0.235-1.019-0.235-2.131-0.235-3.178c0-1.049,0.005-2.16,0.238-3.179c0.164-0.715,0.75-1.241,1.453-1.32
		c1.666-0.186,3.354-0.188,5.035-0.186c1.68-0.001,3.365,0,5.033,0.186c0.703,0.079,1.287,0.605,1.452,1.32
		c0.235,1.019,0.233,2.13,0.233,3.179c0,1.047-0.002,2.158-0.235,3.178C25.076,17.916,24.492,18.443,23.787,18.521z"/>
</g>
</svg>
